# xmcd
#
# Track frame offsets:
#	182
#	11192
#	23395
#	36195
#	49652
#	61700
#	72627
#	83460
#	98630
#	115632
#
# Disc length: 1647 seconds
#
# Revision: 1
# Processed by: cddbd v1.5.1PL0 Copyright (c) Steve Scherf et al.
# Submitted via: audiograbber 1.83.01
#
DISCID=6e066d0a
DTITLE=Various Artist - Greatest Blues Hits
DYEAR=1990
DGENRE=Blues
TTITLE0=John Lee Hooker - Big Fine Woman
TTITLE1=Roy Milton - Early In The Morning
TTITLE2=B.B. King - Please Love Me
TTITLE3=Jimmy Reed - Let's Get Together
TTITLE4=Shirley and Lee - I've Been Loved Before
TTITLE5=Joe Simon - Say
TTITLE6=Ray Charles - Did You Cry The Blues
TTITLE7=Little Richard - Milky White Way
TTITLE8=Jimmy Witherspoon - Stormy Monday
TTITLE9=Jimmy Soul - Double Dealing
EXTD=
EXTT0=
EXTT1=
EXTT2=
EXTT3=
EXTT4=
EXTT5=
EXTT6=
EXTT7=
EXTT8=
EXTT9=
PLAYORDER=
